<svg width="20" height="20" viewBox="0 0 20 20" fill="none" xmlns="http://www.w3.org/2000/svg">
<rect width="20" height="20" rx="2" fill="#605EB3"/>
<path fill-rule="evenodd" clip-rule="evenodd" d="M10.0001 4.2252C8.76264 4.2252 6.83434 4.33905 5.65954 5.4121C4.82904 6.23902 4.50014 7.39897 4.50014 8.9002L4.50007 8.99352C4.49997 9.09267 4.49986 9.19954 4.50069 9.3127C4.49986 9.42564 4.49997 9.53246 4.50007 9.63159L4.50014 9.72492C4.50014 11.2261 4.82904 12.3861 5.65954 13.213C6.10669 13.6214 6.66439 13.8901 7.25014 14.0672V15.3283C7.25014 15.7672 7.53861 15.7752 7.59141 15.7752H7.59389C7.72974 15.7746 7.84716 15.7081 7.96486 15.6036C8.00914 15.5643 8.52036 14.9945 9.07641 14.3713C9.40751 14.3925 9.72211 14.4002 9.99986 14.4002C11.2374 14.4002 13.1654 14.2861 14.3405 13.213C15.1707 12.3864 15.4999 11.2261 15.4999 9.72492L15.4999 9.63156C15.5 9.53242 15.5001 9.42557 15.4993 9.31242C15.5001 9.1993 15.5 9.09263 15.4999 8.99347L15.4999 8.89992C15.4999 7.3987 15.171 6.23875 14.3405 5.41182C13.1657 4.33905 11.2376 4.2252 10.0001 4.2252ZM11.7307 10.4715C12.1526 10.7248 12.2936 10.8026 12.5992 11.06C12.7026 11.1472 12.7499 11.2465 12.7501 11.3504C12.7504 11.5264 12.6632 11.7569 12.5469 11.9131C12.3717 12.1479 12.1333 12.3938 11.8363 12.4592C11.7926 12.4689 11.7489 12.4738 11.7051 12.4752C11.3988 12.484 11.0886 12.3646 10.8251 12.2348C10.1984 11.926 9.59176 11.5174 9.05001 11.0727C8.87676 10.9302 8.71561 10.7754 8.55996 10.6154C8.39964 10.4597 8.24481 10.2986 8.10264 10.1253C7.65796 9.58357 7.24931 8.97692 6.94049 8.3502C6.80931 8.08427 6.68776 7.77022 6.70041 7.46085C6.70206 7.42015 6.70729 7.37945 6.71609 7.33902C6.78181 7.04202 7.02739 6.8036 7.26224 6.62842C7.41844 6.5121 7.64916 6.42492 7.82489 6.4252C7.92884 6.42547 8.02811 6.47277 8.11529 6.57617C8.37296 6.88142 8.45051 7.0225 8.70379 7.44462C8.80911 7.62035 8.90014 7.88407 8.90014 8.0246C8.90014 8.12057 8.82259 8.23552 8.75219 8.30565C8.57179 8.48632 8.35014 8.54957 8.35014 8.86582C8.35014 9.1752 8.66501 9.71557 9.07201 10.1033C9.45976 10.5103 10.0001 10.8252 10.3095 10.8252C10.6258 10.8252 10.6849 10.5994 10.8653 10.419C10.9357 10.3486 11.0506 10.2752 11.1466 10.2752C11.2871 10.2752 11.555 10.3662 11.7307 10.4715ZM12.4751 9.4502C12.4751 9.602 12.5983 9.7252 12.7501 9.7252C12.9019 9.7252 13.0251 9.602 13.0251 9.4502V9.1752C13.0251 7.50732 11.668 6.1502 10.0001 6.1502C9.84834 6.1502 9.72514 6.2734 9.72514 6.4252C9.72514 6.577 9.84834 6.7002 10.0001 6.7002C11.3647 6.7002 12.4751 7.81065 12.4751 9.1752V9.4502ZM10.7952 8.9695C10.8273 9.09325 10.939 9.1752 11.0611 9.1752C11.0839 9.1752 11.1073 9.17217 11.1307 9.16612C11.2775 9.12762 11.3655 8.97775 11.3273 8.83062C11.2016 8.34882 10.8249 7.97235 10.3442 7.84777C10.1965 7.8101 10.0469 7.89837 10.0089 8.04522C9.97099 8.19235 10.0593 8.34222 10.2064 8.38045C10.4943 8.4547 10.7198 8.68047 10.7952 8.9695ZM11.6501 9.1752C11.6501 9.327 11.7733 9.4502 11.9251 9.4502C12.0769 9.4502 12.2001 9.327 12.2001 9.1752C12.2001 8.0059 11.2855 7.04147 10.1176 6.97987C9.96824 6.97162 9.83651 7.08822 9.82854 7.24002C9.82056 7.39155 9.93689 7.52107 10.0887 7.52905C10.9643 7.57525 11.6501 8.2985 11.6501 9.1752Z" fill="white"/>
</svg>
